solid OpenSCAD_Model
  facet normal 1 -0 0
    outer loop
      vertex 53.5 0 4
      vertex 53.5 44 0
      vertex 53.5 44 4
    endloop
  endfacet
  facet normal 1 0 0
    outer loop
      vertex 53.5 44 0
      vertex 53.5 0 4
      vertex 53.5 0 0
    endloop
  endfacet
  facet normal -0 0 1
    outer loop
      vertex 2 42 2
      vertex 51.5 2 2
      vertex 51.5 42 2
    endloop
  endfacet
  facet normal 0 0 1
    outer loop
      vertex 51.5 2 2
      vertex 2 42 2
      vertex 2 2 2
    endloop
  endfacet
  facet normal 0 0 -1
    outer loop
      vertex 0 0 0
      vertex 53.5 44 0
      vertex 53.5 0 0
    endloop
  endfacet
  facet normal -0 0 -1
    outer loop
      vertex 53.5 44 0
      vertex 0 0 0
      vertex 0 44 0
    endloop
  endfacet
  facet normal -1 0 0
    outer loop
      vertex 0 0 0
      vertex 0 44 4
      vertex 0 44 0
    endloop
  endfacet
  facet normal -1 -0 0
    outer loop
      vertex 0 44 4
      vertex 0 0 0
      vertex 0 0 4
    endloop
  endfacet
  facet normal 0 1 -0
    outer loop
      vertex 53.5 44 0
      vertex 0 44 4
      vertex 53.5 44 4
    endloop
  endfacet
  facet normal 0 1 0
    outer loop
      vertex 0 44 4
      vertex 53.5 44 0
      vertex 0 44 0
    endloop
  endfacet
  facet normal 0 -1 0
    outer loop
      vertex 0 0 0
      vertex 53.5 0 4
      vertex 0 0 4
    endloop
  endfacet
  facet normal 0 -1 -0
    outer loop
      vertex 53.5 0 4
      vertex 0 0 0
      vertex 53.5 0 0
    endloop
  endfacet
  facet normal 1 -0 0
    outer loop
      vertex 2 2 4
      vertex 2 42 2
      vertex 2 42 4
    endloop
  endfacet
  facet normal 1 0 0
    outer loop
      vertex 2 42 2
      vertex 2 2 4
      vertex 2 2 2
    endloop
  endfacet
  facet normal 0 0 1
    outer loop
      vertex 53.5 44 4
      vertex 51.5 42 4
      vertex 53.5 0 4
    endloop
  endfacet
  facet normal 0 0 1
    outer loop
      vertex 53.5 44 4
      vertex 2 42 4
      vertex 51.5 42 4
    endloop
  endfacet
  facet normal 0 0 1
    outer loop
      vertex 2 42 4
      vertex 0 44 4
      vertex 2 2 4
    endloop
  endfacet
  facet normal -0 0 1
    outer loop
      vertex 0 44 4
      vertex 2 42 4
      vertex 53.5 44 4
    endloop
  endfacet
  facet normal -0 0 1
    outer loop
      vertex 51.5 2 4
      vertex 53.5 0 4
      vertex 51.5 42 4
    endloop
  endfacet
  facet normal -0 0 1
    outer loop
      vertex 2 2 4
      vertex 53.5 0 4
      vertex 51.5 2 4
    endloop
  endfacet
  facet normal 0 0 1
    outer loop
      vertex 2 2 4
      vertex 0 0 4
      vertex 53.5 0 4
    endloop
  endfacet
  facet normal 0 0 1
    outer loop
      vertex 0 0 4
      vertex 2 2 4
      vertex 0 44 4
    endloop
  endfacet
  facet normal -1 0 0
    outer loop
      vertex 51.5 2 2
      vertex 51.5 42 4
      vertex 51.5 42 2
    endloop
  endfacet
  facet normal -1 -0 0
    outer loop
      vertex 51.5 42 4
      vertex 51.5 2 2
      vertex 51.5 2 4
    endloop
  endfacet
  facet normal 0 1 -0
    outer loop
      vertex 51.5 2 2
      vertex 2 2 4
      vertex 51.5 2 4
    endloop
  endfacet
  facet normal 0 1 0
    outer loop
      vertex 2 2 4
      vertex 51.5 2 2
      vertex 2 2 2
    endloop
  endfacet
  facet normal 0 -1 0
    outer loop
      vertex 2 42 2
      vertex 51.5 42 4
      vertex 2 42 4
    endloop
  endfacet
  facet normal 0 -1 -0
    outer loop
      vertex 51.5 42 4
      vertex 2 42 2
      vertex 51.5 42 2
    endloop
  endfacet
endsolid OpenSCAD_Model
