solid OpenSCAD_Model
  facet normal -1 0 0
    outer loop
      vertex 46 12 1
      vertex 46 0 1
      vertex 46 12 10
    endloop
  endfacet
  facet normal -1 0 0
    outer loop
      vertex 46 23.5 10
      vertex 46 36.5 1
      vertex 46 23.5 1
    endloop
  endfacet
  facet normal -1 0 0
    outer loop
      vertex 46 36.5 1
      vertex 46 23.5 10
      vertex 46 36.5 18
    endloop
  endfacet
  facet normal -1 0 0
    outer loop
      vertex 46 0 18
      vertex 46 23.5 10
      vertex 46 12 10
    endloop
  endfacet
  facet normal -1 0 0
    outer loop
      vertex 46 23.5 10
      vertex 46 0 18
      vertex 46 36.5 18
    endloop
  endfacet
  facet normal -1 0 0
    outer loop
      vertex 46 0 18
      vertex 46 12 10
      vertex 46 0 1
    endloop
  endfacet
  facet normal 1 -0 0
    outer loop
      vertex 46 12 1
      vertex 46 23.5 0
      vertex 46 23.5 1
    endloop
  endfacet
  facet normal 1 0 0
    outer loop
      vertex 46 23.5 0
      vertex 46 12 1
      vertex 46 12 0
    endloop
  endfacet
  facet normal -0 0 1
    outer loop
      vertex 36 36.5 1
      vertex 46 23.5 1
      vertex 46 36.5 1
    endloop
  endfacet
  facet normal 0 0 1
    outer loop
      vertex 36 0 1
      vertex 46 23.5 1
      vertex 36 36.5 1
    endloop
  endfacet
  facet normal 0 0 1
    outer loop
      vertex 46 23.5 1
      vertex 36 0 1
      vertex 46 12 1
    endloop
  endfacet
  facet normal 0 0 1
    outer loop
      vertex 46 12 1
      vertex 36 0 1
      vertex 46 0 1
    endloop
  endfacet
  facet normal 0 0 -1
    outer loop
      vertex 16.25 -2 0
      vertex -2 -2 0
      vertex 16.25 0 0
    endloop
  endfacet
  facet normal 0 0 -1
    outer loop
      vertex 48 -2 0
      vertex 46 12 0
      vertex 48 12 0
    endloop
  endfacet
  facet normal 0 0 -1
    outer loop
      vertex 48 -2 0
      vertex 29.75 0 0
      vertex 46 12 0
    endloop
  endfacet
  facet normal 0 0 -1
    outer loop
      vertex 29.75 0 0
      vertex 48 -2 0
      vertex 29.75 -2 0
    endloop
  endfacet
  facet normal 0 0 -1
    outer loop
      vertex 46 23.5 0
      vertex 48 38.5 0
      vertex 48 23.5 0
    endloop
  endfacet
  facet normal -0 0 -1
    outer loop
      vertex 46 12 0
      vertex 29.75 0 0
      vertex 46 23.5 0
    endloop
  endfacet
  facet normal 0 0 -1
    outer loop
      vertex 16.25 0 0
      vertex 46 23.5 0
      vertex 29.75 0 0
    endloop
  endfacet
  facet normal 0 0 -1
    outer loop
      vertex -2 38.5 0
      vertex 46 23.5 0
      vertex 16.25 0 0
    endloop
  endfacet
  facet normal 0 0 -1
    outer loop
      vertex -2 38.5 0
      vertex 16.25 0 0
      vertex -2 -2 0
    endloop
  endfacet
  facet normal 0 0 -1
    outer loop
      vertex 46 23.5 0
      vertex -2 38.5 0
      vertex 48 38.5 0
    endloop
  endfacet
  facet normal 1 0 0
    outer loop
      vertex 0 36.5 18
      vertex 0 35.5 12
      vertex 0 36.5 3
    endloop
  endfacet
  facet normal 1 0 0
    outer loop
      vertex 0 36.5 18
      vertex 0 19.5 12
      vertex 0 35.5 12
    endloop
  endfacet
  facet normal 1 0 0
    outer loop
      vertex 0 19.5 12
      vertex 0 19 9
      vertex 0 19.5 4.5
    endloop
  endfacet
  facet normal 1 0 0
    outer loop
      vertex 0 19.5 12
      vertex 0 3 9
      vertex 0 19 9
    endloop
  endfacet
  facet normal 1 -0 0
    outer loop
      vertex 0 0 18
      vertex 0 19.5 12
      vertex 0 36.5 18
    endloop
  endfacet
  facet normal 1 0 0
    outer loop
      vertex 0 0 3
      vertex 0 3 9
      vertex 0 0 18
    endloop
  endfacet
  facet normal 1 0 0
    outer loop
      vertex 0 19.5 12
      vertex 0 0 18
      vertex 0 3 9
    endloop
  endfacet
  facet normal 1 -0 0
    outer loop
      vertex 0 35.5 4.5
      vertex 0 36.5 3
      vertex 0 35.5 12
    endloop
  endfacet
  facet normal 1 -0 0
    outer loop
      vertex 0 19.5 4.5
      vertex 0 36.5 3
      vertex 0 35.5 4.5
    endloop
  endfacet
  facet normal 1 0 0
    outer loop
      vertex 0 19 4.5
      vertex 0 19.5 4.5
      vertex 0 19 9
    endloop
  endfacet
  facet normal 1 -0 0
    outer loop
      vertex 0 19 4.5
      vertex 0 36.5 3
      vertex 0 19.5 4.5
    endloop
  endfacet
  facet normal 1 0 0
    outer loop
      vertex 0 0 3
      vertex 0 19 4.5
      vertex 0 3 4.5
    endloop
  endfacet
  facet normal 1 0 0
    outer loop
      vertex 0 19 4.5
      vertex 0 0 3
      vertex 0 36.5 3
    endloop
  endfacet
  facet normal 1 0 0
    outer loop
      vertex 0 3 9
      vertex 0 0 3
      vertex 0 3 4.5
    endloop
  endfacet
  facet normal 0 -1 0
    outer loop
      vertex 36 36.5 3
      vertex 0 36.5 18
      vertex 0 36.5 3
    endloop
  endfacet
  facet normal 0 -1 0
    outer loop
      vertex 0 36.5 18
      vertex 36 36.5 3
      vertex 46 36.5 18
    endloop
  endfacet
  facet normal 0 -1 0
    outer loop
      vertex 46 36.5 1
      vertex 36 36.5 3
      vertex 36 36.5 1
    endloop
  endfacet
  facet normal 0 -1 0
    outer loop
      vertex 36 36.5 3
      vertex 46 36.5 1
      vertex 46 36.5 18
    endloop
  endfacet
  facet normal 0 1 0
    outer loop
      vertex 46 0 18
      vertex 29.75 0 8
      vertex 0 0 18
    endloop
  endfacet
  facet normal 0 1 0
    outer loop
      vertex 46 0 18
      vertex 36 0 3
      vertex 29.75 0 8
    endloop
  endfacet
  facet normal 0 1 -0
    outer loop
      vertex 46 0 1
      vertex 36 0 3
      vertex 46 0 18
    endloop
  endfacet
  facet normal 0 1 0
    outer loop
      vertex 36 0 3
      vertex 46 0 1
      vertex 36 0 1
    endloop
  endfacet
  facet normal 0 1 -0
    outer loop
      vertex 16.25 0 8
      vertex 0 0 18
      vertex 29.75 0 8
    endloop
  endfacet
  facet normal 0 1 0
    outer loop
      vertex 0 0 3
      vertex 16.25 0 8
      vertex 16.25 0 3
    endloop
  endfacet
  facet normal 0 1 0
    outer loop
      vertex 16.25 0 8
      vertex 0 0 3
      vertex 0 0 18
    endloop
  endfacet
  facet normal 0 1 0
    outer loop
      vertex 29.75 0 8
      vertex 36 0 3
      vertex 29.75 0 3
    endloop
  endfacet
  facet normal 0 -1 0
    outer loop
      vertex 16.25 0 0
      vertex 29.75 0 3
      vertex 16.25 0 3
    endloop
  endfacet
  facet normal 0 -1 -0
    outer loop
      vertex 29.75 0 3
      vertex 16.25 0 0
      vertex 29.75 0 0
    endloop
  endfacet
  facet normal 1 -0 0
    outer loop
      vertex 36 0 3
      vertex 36 36.5 1
      vertex 36 36.5 3
    endloop
  endfacet
  facet normal 1 0 0
    outer loop
      vertex 36 36.5 1
      vertex 36 0 3
      vertex 36 0 1
    endloop
  endfacet
  facet normal 0 0 1
    outer loop
      vertex 36 36.5 3
      vertex 29.75 0 3
      vertex 36 0 3
    endloop
  endfacet
  facet normal 0 0 1
    outer loop
      vertex 36 36.5 3
      vertex 16.25 0 3
      vertex 29.75 0 3
    endloop
  endfacet
  facet normal -0 0 1
    outer loop
      vertex 0 36.5 3
      vertex 16.25 0 3
      vertex 36 36.5 3
    endloop
  endfacet
  facet normal 0 0 1
    outer loop
      vertex 16.25 0 3
      vertex 0 36.5 3
      vertex 0 0 3
    endloop
  endfacet
  facet normal 1 -0 0
    outer loop
      vertex 16.25 -2 8
      vertex 16.25 0 3
      vertex 16.25 0 8
    endloop
  endfacet
  facet normal 1 0 0
    outer loop
      vertex 16.25 -2 0
      vertex 16.25 0 3
      vertex 16.25 -2 8
    endloop
  endfacet
  facet normal 1 0 0
    outer loop
      vertex 16.25 0 3
      vertex 16.25 -2 0
      vertex 16.25 0 0
    endloop
  endfacet
  facet normal 0 0 1
    outer loop
      vertex 48 38.5 18
      vertex 46 36.5 18
      vertex 48 -2 18
    endloop
  endfacet
  facet normal 0 0 1
    outer loop
      vertex 48 38.5 18
      vertex 0 36.5 18
      vertex 46 36.5 18
    endloop
  endfacet
  facet normal 0 0 1
    outer loop
      vertex 0 36.5 18
      vertex -2 38.5 18
      vertex 0 0 18
    endloop
  endfacet
  facet normal -0 0 1
    outer loop
      vertex -2 38.5 18
      vertex 0 36.5 18
      vertex 48 38.5 18
    endloop
  endfacet
  facet normal -0 0 1
    outer loop
      vertex 46 0 18
      vertex 48 -2 18
      vertex 46 36.5 18
    endloop
  endfacet
  facet normal -0 0 1
    outer loop
      vertex 0 0 18
      vertex 48 -2 18
      vertex 46 0 18
    endloop
  endfacet
  facet normal 0 0 1
    outer loop
      vertex 0 0 18
      vertex -2 -2 18
      vertex 48 -2 18
    endloop
  endfacet
  facet normal 0 0 1
    outer loop
      vertex -2 -2 18
      vertex 0 0 18
      vertex -2 38.5 18
    endloop
  endfacet
  facet normal 0 -1 0
    outer loop
      vertex -2 -2 18
      vertex 16.25 -2 8
      vertex 48 -2 18
    endloop
  endfacet
  facet normal 0 -1 0
    outer loop
      vertex -2 -2 0
      vertex 16.25 -2 8
      vertex -2 -2 18
    endloop
  endfacet
  facet normal 0 -1 -0
    outer loop
      vertex 16.25 -2 8
      vertex -2 -2 0
      vertex 16.25 -2 0
    endloop
  endfacet
  facet normal 0 -1 0
    outer loop
      vertex 29.75 -2 8
      vertex 48 -2 18
      vertex 16.25 -2 8
    endloop
  endfacet
  facet normal 0 -1 0
    outer loop
      vertex 48 -2 0
      vertex 29.75 -2 8
      vertex 29.75 -2 0
    endloop
  endfacet
  facet normal 0 -1 0
    outer loop
      vertex 29.75 -2 8
      vertex 48 -2 0
      vertex 48 -2 18
    endloop
  endfacet
  facet normal -1 0 0
    outer loop
      vertex 29.75 -2 0
      vertex 29.75 0 3
      vertex 29.75 0 0
    endloop
  endfacet
  facet normal -1 0 0
    outer loop
      vertex 29.75 -2 8
      vertex 29.75 0 3
      vertex 29.75 -2 0
    endloop
  endfacet
  facet normal -1 0 0
    outer loop
      vertex 29.75 0 3
      vertex 29.75 -2 8
      vertex 29.75 0 8
    endloop
  endfacet
  facet normal 0 0 -1
    outer loop
      vertex 16.25 -2 8
      vertex 29.75 0 8
      vertex 29.75 -2 8
    endloop
  endfacet
  facet normal -0 0 -1
    outer loop
      vertex 29.75 0 8
      vertex 16.25 -2 8
      vertex 16.25 0 8
    endloop
  endfacet
  facet normal 1 0 0
    outer loop
      vertex 48 38.5 18
      vertex 48 23.5 10
      vertex 48 38.5 0
    endloop
  endfacet
  facet normal 1 0 0
    outer loop
      vertex 48 21.85 15.55
      vertex 48 38.5 18
      vertex 48 21.85 16.45
    endloop
  endfacet
  facet normal 1 0 0
    outer loop
      vertex 48 38.5 18
      vertex 48 14.65 16.45
      vertex 48 21.85 16.45
    endloop
  endfacet
  facet normal 1 0 0
    outer loop
      vertex 48 14.65 16.45
      vertex 48 12 10
      vertex 48 14.65 15.55
    endloop
  endfacet
  facet normal 1 -0 0
    outer loop
      vertex 48 -2 18
      vertex 48 14.65 16.45
      vertex 48 38.5 18
    endloop
  endfacet
  facet normal 1 0 0
    outer loop
      vertex 48 -2 18
      vertex 48 12 10
      vertex 48 14.65 16.45
    endloop
  endfacet
  facet normal 1 0 0
    outer loop
      vertex 48 -2 0
      vertex 48 12 10
      vertex 48 -2 18
    endloop
  endfacet
  facet normal 1 0 0
    outer loop
      vertex 48 12 10
      vertex 48 -2 0
      vertex 48 12 0
    endloop
  endfacet
  facet normal 1 0 0
    outer loop
      vertex 48 38.5 0
      vertex 48 23.5 10
      vertex 48 23.5 0
    endloop
  endfacet
  facet normal 1 0 0
    outer loop
      vertex 48 38.5 18
      vertex 48 21.85 15.55
      vertex 48 23.5 10
    endloop
  endfacet
  facet normal 1 -0 0
    outer loop
      vertex 48 14.65 15.55
      vertex 48 23.5 10
      vertex 48 21.85 15.55
    endloop
  endfacet
  facet normal 1 0 0
    outer loop
      vertex 48 23.5 10
      vertex 48 14.65 15.55
      vertex 48 12 10
    endloop
  endfacet
  facet normal 0 1 0
    outer loop
      vertex 48 12 10
      vertex 46 12 1
      vertex 46 12 10
    endloop
  endfacet
  facet normal 0 1 -0
    outer loop
      vertex 48 12 0
      vertex 46 12 1
      vertex 48 12 10
    endloop
  endfacet
  facet normal 0 1 0
    outer loop
      vertex 46 12 1
      vertex 48 12 0
      vertex 46 12 0
    endloop
  endfacet
  facet normal 0 1 -0
    outer loop
      vertex 48 38.5 0
      vertex -2 38.5 18
      vertex 48 38.5 18
    endloop
  endfacet
  facet normal 0 1 0
    outer loop
      vertex -2 38.5 18
      vertex 48 38.5 0
      vertex -2 38.5 0
    endloop
  endfacet
  facet normal 0 -1 0
    outer loop
      vertex 46 23.5 1
      vertex 48 23.5 10
      vertex 46 23.5 10
    endloop
  endfacet
  facet normal 0 -1 0
    outer loop
      vertex 48 23.5 0
      vertex 46 23.5 1
      vertex 46 23.5 0
    endloop
  endfacet
  facet normal 0 -1 0
    outer loop
      vertex 46 23.5 1
      vertex 48 23.5 0
      vertex 48 23.5 10
    endloop
  endfacet
  facet normal 0 0 -1
    outer loop
      vertex 46 12 10
      vertex 48 23.5 10
      vertex 48 12 10
    endloop
  endfacet
  facet normal -0 0 -1
    outer loop
      vertex 48 23.5 10
      vertex 46 12 10
      vertex 46 23.5 10
    endloop
  endfacet
  facet normal -0 0 1
    outer loop
      vertex -2 35.5 4.5
      vertex 0 19.5 4.5
      vertex 0 35.5 4.5
    endloop
  endfacet
  facet normal 0 0 1
    outer loop
      vertex 0 19.5 4.5
      vertex -2 35.5 4.5
      vertex -2 19.5 4.5
    endloop
  endfacet
  facet normal -0 0 1
    outer loop
      vertex -2 19 4.5
      vertex 0 3 4.5
      vertex 0 19 4.5
    endloop
  endfacet
  facet normal 0 0 1
    outer loop
      vertex 0 3 4.5
      vertex -2 19 4.5
      vertex -2 3 4.5
    endloop
  endfacet
  facet normal -1 0 0
    outer loop
      vertex -2 19.5 12
      vertex -2 21.85 15.55
      vertex -2 35.5 12
    endloop
  endfacet
  facet normal -1 0 0
    outer loop
      vertex -2 19.5 4.5
      vertex -2 19 9
      vertex -2 19.5 12
    endloop
  endfacet
  facet normal -1 0 0
    outer loop
      vertex -2 19.5 12
      vertex -2 14.65 15.55
      vertex -2 21.85 15.55
    endloop
  endfacet
  facet normal -1 0 0
    outer loop
      vertex -2 19 9
      vertex -2 14.65 15.55
      vertex -2 19.5 12
    endloop
  endfacet
  facet normal -1 -0 0
    outer loop
      vertex -2 14.65 15.55
      vertex -2 3 9
      vertex -2 14.65 16.45
    endloop
  endfacet
  facet normal -1 0 0
    outer loop
      vertex -2 3 9
      vertex -2 14.65 15.55
      vertex -2 19 9
    endloop
  endfacet
  facet normal -1 0 0
    outer loop
      vertex -2 35.5 12
      vertex -2 38.5 0
      vertex -2 35.5 4.5
    endloop
  endfacet
  facet normal -1 0 0
    outer loop
      vertex -2 38.5 0
      vertex -2 19.5 4.5
      vertex -2 35.5 4.5
    endloop
  endfacet
  facet normal -1 0 0
    outer loop
      vertex -2 19 9
      vertex -2 19.5 4.5
      vertex -2 19 4.5
    endloop
  endfacet
  facet normal -1 0 0
    outer loop
      vertex -2 38.5 0
      vertex -2 19 4.5
      vertex -2 19.5 4.5
    endloop
  endfacet
  facet normal -1 0 0
    outer loop
      vertex -2 -2 0
      vertex -2 19 4.5
      vertex -2 38.5 0
    endloop
  endfacet
  facet normal -1 -0 0
    outer loop
      vertex -2 3 4.5
      vertex -2 -2 0
      vertex -2 3 9
    endloop
  endfacet
  facet normal -1 -0 0
    outer loop
      vertex -2 19 4.5
      vertex -2 -2 0
      vertex -2 3 4.5
    endloop
  endfacet
  facet normal -1 0 0
    outer loop
      vertex -2 38.5 0
      vertex -2 35.5 12
      vertex -2 38.5 18
    endloop
  endfacet
  facet normal -1 0 0
    outer loop
      vertex -2 21.85 16.45
      vertex -2 35.5 12
      vertex -2 21.85 15.55
    endloop
  endfacet
  facet normal -1 0 0
    outer loop
      vertex -2 35.5 12
      vertex -2 21.85 16.45
      vertex -2 38.5 18
    endloop
  endfacet
  facet normal -1 0 0
    outer loop
      vertex -2 14.65 16.45
      vertex -2 38.5 18
      vertex -2 21.85 16.45
    endloop
  endfacet
  facet normal -1 0 0
    outer loop
      vertex -2 14.65 16.45
      vertex -2 -2 18
      vertex -2 38.5 18
    endloop
  endfacet
  facet normal -1 0 0
    outer loop
      vertex -2 3 9
      vertex -2 -2 18
      vertex -2 14.65 16.45
    endloop
  endfacet
  facet normal -1 0 0
    outer loop
      vertex -2 -2 18
      vertex -2 3 9
      vertex -2 -2 0
    endloop
  endfacet
  facet normal 0 -1 0
    outer loop
      vertex -2 35.5 4.5
      vertex 0 35.5 12
      vertex -2 35.5 12
    endloop
  endfacet
  facet normal 0 -1 -0
    outer loop
      vertex 0 35.5 12
      vertex -2 35.5 4.5
      vertex 0 35.5 4.5
    endloop
  endfacet
  facet normal 0 1 -0
    outer loop
      vertex 0 19.5 4.5
      vertex -2 19.5 12
      vertex 0 19.5 12
    endloop
  endfacet
  facet normal 0 1 0
    outer loop
      vertex -2 19.5 12
      vertex 0 19.5 4.5
      vertex -2 19.5 4.5
    endloop
  endfacet
  facet normal 0 -1 0
    outer loop
      vertex -2 19 4.5
      vertex 0 19 9
      vertex -2 19 9
    endloop
  endfacet
  facet normal 0 -1 -0
    outer loop
      vertex 0 19 9
      vertex -2 19 4.5
      vertex 0 19 4.5
    endloop
  endfacet
  facet normal 0 1 -0
    outer loop
      vertex 0 3 4.5
      vertex -2 3 9
      vertex 0 3 9
    endloop
  endfacet
  facet normal 0 1 0
    outer loop
      vertex -2 3 9
      vertex 0 3 4.5
      vertex -2 3 4.5
    endloop
  endfacet
  facet normal 0 0 -1
    outer loop
      vertex -2 19.5 12
      vertex 0 35.5 12
      vertex 0 19.5 12
    endloop
  endfacet
  facet normal -0 0 -1
    outer loop
      vertex 0 35.5 12
      vertex -2 19.5 12
      vertex -2 35.5 12
    endloop
  endfacet
  facet normal 0 0 -1
    outer loop
      vertex -2 3 9
      vertex 0 19 9
      vertex 0 3 9
    endloop
  endfacet
  facet normal -0 0 -1
    outer loop
      vertex 0 19 9
      vertex -2 3 9
      vertex -2 19 9
    endloop
  endfacet
  facet normal -0 0 1
    outer loop
      vertex -2.9 21.85 16.45
      vertex -2 14.65 16.45
      vertex -2 21.85 16.45
    endloop
  endfacet
  facet normal 0 0 1
    outer loop
      vertex -2 14.65 16.45
      vertex -2.9 21.85 16.45
      vertex -2.9 14.65 16.45
    endloop
  endfacet
  facet normal 0 0 -1
    outer loop
      vertex -2.9 14.65 15.55
      vertex -2 21.85 15.55
      vertex -2 14.65 15.55
    endloop
  endfacet
  facet normal -0 0 -1
    outer loop
      vertex -2 21.85 15.55
      vertex -2.9 14.65 15.55
      vertex -2.9 21.85 15.55
    endloop
  endfacet
  facet normal -1 0 0
    outer loop
      vertex -2.9 14.65 15.55
      vertex -2.9 21.85 16.45
      vertex -2.9 21.85 15.55
    endloop
  endfacet
  facet normal -1 -0 0
    outer loop
      vertex -2.9 21.85 16.45
      vertex -2.9 14.65 15.55
      vertex -2.9 14.65 16.45
    endloop
  endfacet
  facet normal 0 1 -0
    outer loop
      vertex -2 21.85 15.55
      vertex -2.9 21.85 16.45
      vertex -2 21.85 16.45
    endloop
  endfacet
  facet normal 0 1 0
    outer loop
      vertex -2.9 21.85 16.45
      vertex -2 21.85 15.55
      vertex -2.9 21.85 15.55
    endloop
  endfacet
  facet normal 0 -1 0
    outer loop
      vertex -2.9 14.65 15.55
      vertex -2 14.65 16.45
      vertex -2.9 14.65 16.45
    endloop
  endfacet
  facet normal 0 -1 -0
    outer loop
      vertex -2 14.65 16.45
      vertex -2.9 14.65 15.55
      vertex -2 14.65 15.55
    endloop
  endfacet
  facet normal 1 -0 0
    outer loop
      vertex 48.9 14.65 16.45
      vertex 48.9 21.85 15.55
      vertex 48.9 21.85 16.45
    endloop
  endfacet
  facet normal 1 0 0
    outer loop
      vertex 48.9 21.85 15.55
      vertex 48.9 14.65 16.45
      vertex 48.9 14.65 15.55
    endloop
  endfacet
  facet normal -0 0 1
    outer loop
      vertex 48 21.85 16.45
      vertex 48.9 14.65 16.45
      vertex 48.9 21.85 16.45
    endloop
  endfacet
  facet normal 0 0 1
    outer loop
      vertex 48.9 14.65 16.45
      vertex 48 21.85 16.45
      vertex 48 14.65 16.45
    endloop
  endfacet
  facet normal 0 0 -1
    outer loop
      vertex 48 14.65 15.55
      vertex 48.9 21.85 15.55
      vertex 48.9 14.65 15.55
    endloop
  endfacet
  facet normal -0 0 -1
    outer loop
      vertex 48.9 21.85 15.55
      vertex 48 14.65 15.55
      vertex 48 21.85 15.55
    endloop
  endfacet
  facet normal 0 1 -0
    outer loop
      vertex 48.9 21.85 15.55
      vertex 48 21.85 16.45
      vertex 48.9 21.85 16.45
    endloop
  endfacet
  facet normal 0 1 0
    outer loop
      vertex 48 21.85 16.45
      vertex 48.9 21.85 15.55
      vertex 48 21.85 15.55
    endloop
  endfacet
  facet normal 0 -1 0
    outer loop
      vertex 48 14.65 15.55
      vertex 48.9 14.65 16.45
      vertex 48 14.65 16.45
    endloop
  endfacet
  facet normal 0 -1 -0
    outer loop
      vertex 48.9 14.65 16.45
      vertex 48 14.65 15.55
      vertex 48.9 14.65 15.55
    endloop
  endfacet
endsolid OpenSCAD_Model
