solid OpenSCAD_Model
  facet normal 1 0 0
    outer loop
      vertex 2 42.5 6
      vertex 2 26.25 4.5
      vertex 2 42.5 2
    endloop
  endfacet
  facet normal 1 0 0
    outer loop
      vertex 2 42.5 6
      vertex 2 18.25 4.5
      vertex 2 26.25 4.5
    endloop
  endfacet
  facet normal 1 0 0
    outer loop
      vertex 2 18.25 4.5
      vertex 2 2 6
      vertex 2 18.25 3.5
    endloop
  endfacet
  facet normal 1 -0 0
    outer loop
      vertex 2 2 6
      vertex 2 18.25 4.5
      vertex 2 42.5 6
    endloop
  endfacet
  facet normal 1 -0 0
    outer loop
      vertex 2 26.25 3.5
      vertex 2 42.5 2
      vertex 2 26.25 4.5
    endloop
  endfacet
  facet normal 1 -0 0
    outer loop
      vertex 2 18.25 3.5
      vertex 2 42.5 2
      vertex 2 26.25 3.5
    endloop
  endfacet
  facet normal 1 0 0
    outer loop
      vertex 2 18.25 3.5
      vertex 2 2 2
      vertex 2 42.5 2
    endloop
  endfacet
  facet normal 1 0 0
    outer loop
      vertex 2 2 2
      vertex 2 18.25 3.5
      vertex 2 2 6
    endloop
  endfacet
  facet normal 0 0 1
    outer loop
      vertex 54 44.5 6
      vertex 52 42.5 6
      vertex 54 0 6
    endloop
  endfacet
  facet normal 0 0 1
    outer loop
      vertex 54 44.5 6
      vertex 2 42.5 6
      vertex 52 42.5 6
    endloop
  endfacet
  facet normal 0 0 1
    outer loop
      vertex 2 42.5 6
      vertex 0 44.5 6
      vertex 2 2 6
    endloop
  endfacet
  facet normal -0 0 1
    outer loop
      vertex 0 44.5 6
      vertex 2 42.5 6
      vertex 54 44.5 6
    endloop
  endfacet
  facet normal -0 0 1
    outer loop
      vertex 52 2 6
      vertex 54 0 6
      vertex 52 42.5 6
    endloop
  endfacet
  facet normal -0 0 1
    outer loop
      vertex 2 2 6
      vertex 54 0 6
      vertex 52 2 6
    endloop
  endfacet
  facet normal 0 0 1
    outer loop
      vertex 2 2 6
      vertex 0 0 6
      vertex 54 0 6
    endloop
  endfacet
  facet normal 0 0 1
    outer loop
      vertex 0 0 6
      vertex 2 2 6
      vertex 0 44.5 6
    endloop
  endfacet
  facet normal -0 0 1
    outer loop
      vertex 2 42.5 2
      vertex 52 2 2
      vertex 52 42.5 2
    endloop
  endfacet
  facet normal 0 0 1
    outer loop
      vertex 52 2 2
      vertex 2 42.5 2
      vertex 2 2 2
    endloop
  endfacet
  facet normal -1 0 0
    outer loop
      vertex 0 0 0
      vertex 0 44.5 6
      vertex 0 44.5 0
    endloop
  endfacet
  facet normal -1 -0 0
    outer loop
      vertex 0 44.5 6
      vertex 0 0 0
      vertex 0 0 6
    endloop
  endfacet
  facet normal 0 1 -0
    outer loop
      vertex 54 44.5 0
      vertex 0 44.5 6
      vertex 54 44.5 6
    endloop
  endfacet
  facet normal 0 1 0
    outer loop
      vertex 0 44.5 6
      vertex 54 44.5 0
      vertex 0 44.5 0
    endloop
  endfacet
  facet normal 0 -1 0
    outer loop
      vertex 0 0 0
      vertex 54 0 6
      vertex 0 0 6
    endloop
  endfacet
  facet normal 0 -1 -0
    outer loop
      vertex 54 0 6
      vertex 0 0 0
      vertex 54 0 0
    endloop
  endfacet
  facet normal 0 0 -1
    outer loop
      vertex 1 18.25 4.5
      vertex 2 26.25 4.5
      vertex 2 18.25 4.5
    endloop
  endfacet
  facet normal -0 0 -1
    outer loop
      vertex 2 26.25 4.5
      vertex 1 18.25 4.5
      vertex 1 26.25 4.5
    endloop
  endfacet
  facet normal -0 0 1
    outer loop
      vertex 1 26.25 3.5
      vertex 2 18.25 3.5
      vertex 2 26.25 3.5
    endloop
  endfacet
  facet normal 0 0 1
    outer loop
      vertex 2 18.25 3.5
      vertex 1 26.25 3.5
      vertex 1 18.25 3.5
    endloop
  endfacet
  facet normal 1 -0 0
    outer loop
      vertex 1 18.25 4.5
      vertex 1 26.25 3.5
      vertex 1 26.25 4.5
    endloop
  endfacet
  facet normal 1 0 0
    outer loop
      vertex 1 26.25 3.5
      vertex 1 18.25 4.5
      vertex 1 18.25 3.5
    endloop
  endfacet
  facet normal 0 -1 0
    outer loop
      vertex 1 26.25 3.5
      vertex 2 26.25 4.5
      vertex 1 26.25 4.5
    endloop
  endfacet
  facet normal 0 -1 -0
    outer loop
      vertex 2 26.25 4.5
      vertex 1 26.25 3.5
      vertex 2 26.25 3.5
    endloop
  endfacet
  facet normal 0 1 -0
    outer loop
      vertex 2 18.25 3.5
      vertex 1 18.25 4.5
      vertex 2 18.25 4.5
    endloop
  endfacet
  facet normal 0 1 0
    outer loop
      vertex 1 18.25 4.5
      vertex 2 18.25 3.5
      vertex 1 18.25 3.5
    endloop
  endfacet
  facet normal 1 -0 0
    outer loop
      vertex 54 0 6
      vertex 54 44.5 0
      vertex 54 44.5 6
    endloop
  endfacet
  facet normal 1 0 0
    outer loop
      vertex 54 44.5 0
      vertex 54 0 6
      vertex 54 0 0
    endloop
  endfacet
  facet normal -1 0 0
    outer loop
      vertex 52 42.5 2
      vertex 52 26.25 3.5
      vertex 52 42.5 6
    endloop
  endfacet
  facet normal -1 0 0
    outer loop
      vertex 52 42.5 2
      vertex 52 18.25 3.5
      vertex 52 26.25 3.5
    endloop
  endfacet
  facet normal -1 -0 0
    outer loop
      vertex 52 18.25 3.5
      vertex 52 2 2
      vertex 52 18.25 4.5
    endloop
  endfacet
  facet normal -1 0 0
    outer loop
      vertex 52 2 2
      vertex 52 18.25 3.5
      vertex 52 42.5 2
    endloop
  endfacet
  facet normal -1 0 0
    outer loop
      vertex 52 26.25 4.5
      vertex 52 42.5 6
      vertex 52 26.25 3.5
    endloop
  endfacet
  facet normal -1 0 0
    outer loop
      vertex 52 18.25 4.5
      vertex 52 42.5 6
      vertex 52 26.25 4.5
    endloop
  endfacet
  facet normal -1 0 0
    outer loop
      vertex 52 18.25 4.5
      vertex 52 2 6
      vertex 52 42.5 6
    endloop
  endfacet
  facet normal -1 0 0
    outer loop
      vertex 52 2 6
      vertex 52 18.25 4.5
      vertex 52 2 2
    endloop
  endfacet
  facet normal -1 0 0
    outer loop
      vertex 53 18.25 3.5
      vertex 53 26.25 4.5
      vertex 53 26.25 3.5
    endloop
  endfacet
  facet normal -1 -0 0
    outer loop
      vertex 53 26.25 4.5
      vertex 53 18.25 3.5
      vertex 53 18.25 4.5
    endloop
  endfacet
  facet normal 0 0 -1
    outer loop
      vertex 52 18.25 4.5
      vertex 53 26.25 4.5
      vertex 53 18.25 4.5
    endloop
  endfacet
  facet normal -0 0 -1
    outer loop
      vertex 53 26.25 4.5
      vertex 52 18.25 4.5
      vertex 52 26.25 4.5
    endloop
  endfacet
  facet normal -0 0 1
    outer loop
      vertex 52 26.25 3.5
      vertex 53 18.25 3.5
      vertex 53 26.25 3.5
    endloop
  endfacet
  facet normal 0 0 1
    outer loop
      vertex 53 18.25 3.5
      vertex 52 26.25 3.5
      vertex 52 18.25 3.5
    endloop
  endfacet
  facet normal 0 -1 0
    outer loop
      vertex 52 26.25 3.5
      vertex 53 26.25 4.5
      vertex 52 26.25 4.5
    endloop
  endfacet
  facet normal 0 -1 -0
    outer loop
      vertex 53 26.25 4.5
      vertex 52 26.25 3.5
      vertex 53 26.25 3.5
    endloop
  endfacet
  facet normal 0 1 -0
    outer loop
      vertex 53 18.25 3.5
      vertex 52 18.25 4.5
      vertex 53 18.25 4.5
    endloop
  endfacet
  facet normal 0 1 0
    outer loop
      vertex 52 18.25 4.5
      vertex 53 18.25 3.5
      vertex 52 18.25 3.5
    endloop
  endfacet
  facet normal 0 0 -1
    outer loop
      vertex 0 0 0
      vertex 54 44.5 0
      vertex 54 0 0
    endloop
  endfacet
  facet normal -0 0 -1
    outer loop
      vertex 54 44.5 0
      vertex 0 0 0
      vertex 0 44.5 0
    endloop
  endfacet
  facet normal 0 1 -0
    outer loop
      vertex 52 2 2
      vertex 2 2 6
      vertex 52 2 6
    endloop
  endfacet
  facet normal 0 1 0
    outer loop
      vertex 2 2 6
      vertex 52 2 2
      vertex 2 2 2
    endloop
  endfacet
  facet normal 0 -1 0
    outer loop
      vertex 2 42.5 2
      vertex 52 42.5 6
      vertex 2 42.5 6
    endloop
  endfacet
  facet normal 0 -1 -0
    outer loop
      vertex 52 42.5 6
      vertex 2 42.5 2
      vertex 52 42.5 2
    endloop
  endfacet
endsolid OpenSCAD_Model
