solid OpenSCAD_Model
  facet normal -1 0 0
    outer loop
      vertex 46 23.5 13
      vertex 46 36.5 1
      vertex 46 23.5 2
    endloop
  endfacet
  facet normal -1 0 0
    outer loop
      vertex 46 36.5 1
      vertex 46 12 2
      vertex 46 23.5 2
    endloop
  endfacet
  facet normal -1 -0 0
    outer loop
      vertex 46 12 2
      vertex 46 0 1
      vertex 46 12 13
    endloop
  endfacet
  facet normal -1 0 0
    outer loop
      vertex 46 0 1
      vertex 46 12 2
      vertex 46 36.5 1
    endloop
  endfacet
  facet normal -1 0 0
    outer loop
      vertex 46 36.5 1
      vertex 46 23.5 13
      vertex 46 36.5 18
    endloop
  endfacet
  facet normal -1 0 0
    outer loop
      vertex 46 0 18
      vertex 46 23.5 13
      vertex 46 12 13
    endloop
  endfacet
  facet normal -1 0 0
    outer loop
      vertex 46 23.5 13
      vertex 46 0 18
      vertex 46 36.5 18
    endloop
  endfacet
  facet normal -1 0 0
    outer loop
      vertex 46 0 18
      vertex 46 12 13
      vertex 46 0 1
    endloop
  endfacet
  facet normal -0 0 1
    outer loop
      vertex 36 36.5 1
      vertex 46 0 1
      vertex 46 36.5 1
    endloop
  endfacet
  facet normal 0 0 1
    outer loop
      vertex 46 0 1
      vertex 36 36.5 1
      vertex 36 0 1
    endloop
  endfacet
  facet normal 0 0 -1
    outer loop
      vertex 16.25 -2 0
      vertex -2 -2 0
      vertex 16.25 0 0
    endloop
  endfacet
  facet normal 0 0 -1
    outer loop
      vertex 29.75 0 0
      vertex 48 -2 0
      vertex 29.75 -2 0
    endloop
  endfacet
  facet normal 0 0 -1
    outer loop
      vertex 48 -2 0
      vertex 29.75 0 0
      vertex 48 38.5 0
    endloop
  endfacet
  facet normal 0 0 -1
    outer loop
      vertex 16.25 0 0
      vertex 48 38.5 0
      vertex 29.75 0 0
    endloop
  endfacet
  facet normal 0 0 -1
    outer loop
      vertex -2 38.5 0
      vertex 16.25 0 0
      vertex -2 -2 0
    endloop
  endfacet
  facet normal 0 0 -1
    outer loop
      vertex 16.25 0 0
      vertex -2 38.5 0
      vertex 48 38.5 0
    endloop
  endfacet
  facet normal 1 0 0
    outer loop
      vertex 0 36.5 18
      vertex 0 35.5 13
      vertex 0 36.5 3
    endloop
  endfacet
  facet normal 1 0 0
    outer loop
      vertex 0 36.5 18
      vertex 0 19.5 13
      vertex 0 35.5 13
    endloop
  endfacet
  facet normal 1 0 0
    outer loop
      vertex 0 19.5 13
      vertex 0 19 9
      vertex 0 19.5 3
    endloop
  endfacet
  facet normal 1 0 0
    outer loop
      vertex 0 19.5 13
      vertex 0 3 9
      vertex 0 19 9
    endloop
  endfacet
  facet normal 1 -0 0
    outer loop
      vertex 0 0 18
      vertex 0 19.5 13
      vertex 0 36.5 18
    endloop
  endfacet
  facet normal 1 0 0
    outer loop
      vertex 0 19.5 13
      vertex 0 0 18
      vertex 0 3 9
    endloop
  endfacet
  facet normal 1 0 0
    outer loop
      vertex 0 0 3
      vertex 0 3 9
      vertex 0 0 18
    endloop
  endfacet
  facet normal 1 0 0
    outer loop
      vertex 0 3 9
      vertex 0 0 3
      vertex 0 3 3
    endloop
  endfacet
  facet normal 1 0 0
    outer loop
      vertex 0 36.5 3
      vertex 0 35.5 13
      vertex 0 35.5 3
    endloop
  endfacet
  facet normal 1 0 0
    outer loop
      vertex 0 19.5 3
      vertex 0 19 9
      vertex 0 19 3
    endloop
  endfacet
  facet normal 0 -1 0
    outer loop
      vertex 36 36.5 3
      vertex 0 36.5 18
      vertex 0 36.5 3
    endloop
  endfacet
  facet normal 0 -1 0
    outer loop
      vertex 0 36.5 18
      vertex 36 36.5 3
      vertex 46 36.5 18
    endloop
  endfacet
  facet normal 0 -1 0
    outer loop
      vertex 46 36.5 1
      vertex 36 36.5 3
      vertex 36 36.5 1
    endloop
  endfacet
  facet normal 0 -1 0
    outer loop
      vertex 36 36.5 3
      vertex 46 36.5 1
      vertex 46 36.5 18
    endloop
  endfacet
  facet normal 0 1 0
    outer loop
      vertex 46 0 18
      vertex 29.75 0 11
      vertex 0 0 18
    endloop
  endfacet
  facet normal 0 1 0
    outer loop
      vertex 46 0 18
      vertex 36 0 3
      vertex 29.75 0 11
    endloop
  endfacet
  facet normal 0 1 -0
    outer loop
      vertex 46 0 1
      vertex 36 0 3
      vertex 46 0 18
    endloop
  endfacet
  facet normal 0 1 0
    outer loop
      vertex 36 0 3
      vertex 46 0 1
      vertex 36 0 1
    endloop
  endfacet
  facet normal 0 1 -0
    outer loop
      vertex 16.25 0 11
      vertex 0 0 18
      vertex 29.75 0 11
    endloop
  endfacet
  facet normal 0 1 0
    outer loop
      vertex 0 0 3
      vertex 16.25 0 11
      vertex 16.25 0 3
    endloop
  endfacet
  facet normal 0 1 0
    outer loop
      vertex 16.25 0 11
      vertex 0 0 3
      vertex 0 0 18
    endloop
  endfacet
  facet normal 0 1 0
    outer loop
      vertex 29.75 0 11
      vertex 36 0 3
      vertex 29.75 0 3
    endloop
  endfacet
  facet normal 0 -1 0
    outer loop
      vertex 16.25 0 0
      vertex 29.75 0 3
      vertex 16.25 0 3
    endloop
  endfacet
  facet normal 0 -1 -0
    outer loop
      vertex 29.75 0 3
      vertex 16.25 0 0
      vertex 29.75 0 0
    endloop
  endfacet
  facet normal 1 -0 0
    outer loop
      vertex 36 0 3
      vertex 36 36.5 1
      vertex 36 36.5 3
    endloop
  endfacet
  facet normal 1 0 0
    outer loop
      vertex 36 36.5 1
      vertex 36 0 3
      vertex 36 0 1
    endloop
  endfacet
  facet normal -0 0 1
    outer loop
      vertex -2 19 3
      vertex 0 3 3
      vertex 0 19 3
    endloop
  endfacet
  facet normal 0 0 1
    outer loop
      vertex 0 3 3
      vertex -2 19 3
      vertex -2 3 3
    endloop
  endfacet
  facet normal -0 0 1
    outer loop
      vertex -2 35.5 3
      vertex 0 19.5 3
      vertex 0 35.5 3
    endloop
  endfacet
  facet normal 0 0 1
    outer loop
      vertex 0 19.5 3
      vertex -2 35.5 3
      vertex -2 19.5 3
    endloop
  endfacet
  facet normal 0 0 1
    outer loop
      vertex 36 36.5 3
      vertex 29.75 0 3
      vertex 36 0 3
    endloop
  endfacet
  facet normal 0 0 1
    outer loop
      vertex 36 36.5 3
      vertex 16.25 0 3
      vertex 29.75 0 3
    endloop
  endfacet
  facet normal 0 0 1
    outer loop
      vertex 0 35.5 3
      vertex 36 36.5 3
      vertex 0 36.5 3
    endloop
  endfacet
  facet normal 0 0 1
    outer loop
      vertex 0 19.5 3
      vertex 36 36.5 3
      vertex 0 35.5 3
    endloop
  endfacet
  facet normal 0 0 1
    outer loop
      vertex 36 36.5 3
      vertex 0 19.5 3
      vertex 16.25 0 3
    endloop
  endfacet
  facet normal -0 0 1
    outer loop
      vertex 0 19 3
      vertex 16.25 0 3
      vertex 0 19.5 3
    endloop
  endfacet
  facet normal -0 0 1
    outer loop
      vertex 0 3 3
      vertex 16.25 0 3
      vertex 0 19 3
    endloop
  endfacet
  facet normal 0 0 1
    outer loop
      vertex 16.25 0 3
      vertex 0 3 3
      vertex 0 0 3
    endloop
  endfacet
  facet normal 1 -0 0
    outer loop
      vertex 16.25 -2 11
      vertex 16.25 0 3
      vertex 16.25 0 11
    endloop
  endfacet
  facet normal 1 0 0
    outer loop
      vertex 16.25 -2 0
      vertex 16.25 0 3
      vertex 16.25 -2 11
    endloop
  endfacet
  facet normal 1 0 0
    outer loop
      vertex 16.25 0 3
      vertex 16.25 -2 0
      vertex 16.25 0 0
    endloop
  endfacet
  facet normal 0 0 1
    outer loop
      vertex 48 38.5 18
      vertex 46 36.5 18
      vertex 48 -2 18
    endloop
  endfacet
  facet normal 0 0 1
    outer loop
      vertex 48 38.5 18
      vertex 0 36.5 18
      vertex 46 36.5 18
    endloop
  endfacet
  facet normal 0 0 1
    outer loop
      vertex 0 36.5 18
      vertex -2 38.5 18
      vertex 0 0 18
    endloop
  endfacet
  facet normal -0 0 1
    outer loop
      vertex -2 38.5 18
      vertex 0 36.5 18
      vertex 48 38.5 18
    endloop
  endfacet
  facet normal -0 0 1
    outer loop
      vertex 46 0 18
      vertex 48 -2 18
      vertex 46 36.5 18
    endloop
  endfacet
  facet normal -0 0 1
    outer loop
      vertex 0 0 18
      vertex 48 -2 18
      vertex 46 0 18
    endloop
  endfacet
  facet normal 0 0 1
    outer loop
      vertex 0 0 18
      vertex -2 -2 18
      vertex 48 -2 18
    endloop
  endfacet
  facet normal 0 0 1
    outer loop
      vertex -2 -2 18
      vertex 0 0 18
      vertex -2 38.5 18
    endloop
  endfacet
  facet normal 0 -1 0
    outer loop
      vertex -2 -2 18
      vertex 16.25 -2 11
      vertex 48 -2 18
    endloop
  endfacet
  facet normal 0 -1 0
    outer loop
      vertex -2 -2 0
      vertex 16.25 -2 11
      vertex -2 -2 18
    endloop
  endfacet
  facet normal 0 -1 -0
    outer loop
      vertex 16.25 -2 11
      vertex -2 -2 0
      vertex 16.25 -2 0
    endloop
  endfacet
  facet normal 0 -1 0
    outer loop
      vertex 29.75 -2 11
      vertex 48 -2 18
      vertex 16.25 -2 11
    endloop
  endfacet
  facet normal 0 -1 0
    outer loop
      vertex 48 -2 0
      vertex 29.75 -2 11
      vertex 29.75 -2 0
    endloop
  endfacet
  facet normal 0 -1 0
    outer loop
      vertex 29.75 -2 11
      vertex 48 -2 0
      vertex 48 -2 18
    endloop
  endfacet
  facet normal -1 0 0
    outer loop
      vertex 29.75 -2 0
      vertex 29.75 0 3
      vertex 29.75 0 0
    endloop
  endfacet
  facet normal -1 0 0
    outer loop
      vertex 29.75 -2 11
      vertex 29.75 0 3
      vertex 29.75 -2 0
    endloop
  endfacet
  facet normal -1 0 0
    outer loop
      vertex 29.75 0 3
      vertex 29.75 -2 11
      vertex 29.75 0 11
    endloop
  endfacet
  facet normal 0 0 -1
    outer loop
      vertex 16.25 -2 11
      vertex 29.75 0 11
      vertex 29.75 -2 11
    endloop
  endfacet
  facet normal -0 0 -1
    outer loop
      vertex 29.75 0 11
      vertex 16.25 -2 11
      vertex 16.25 0 11
    endloop
  endfacet
  facet normal 1 0 0
    outer loop
      vertex 48 38.5 18
      vertex 48 23.5 13
      vertex 48 38.5 0
    endloop
  endfacet
  facet normal 1 -0 0
    outer loop
      vertex 48 -2 18
      vertex 48 23.5 13
      vertex 48 38.5 18
    endloop
  endfacet
  facet normal 1 0 0
    outer loop
      vertex 48 -2 0
      vertex 48 12 13
      vertex 48 -2 18
    endloop
  endfacet
  facet normal 1 0 0
    outer loop
      vertex 48 23.5 13
      vertex 48 -2 18
      vertex 48 12 13
    endloop
  endfacet
  facet normal 1 -0 0
    outer loop
      vertex 48 23.5 2
      vertex 48 38.5 0
      vertex 48 23.5 13
    endloop
  endfacet
  facet normal 1 -0 0
    outer loop
      vertex 48 12 2
      vertex 48 38.5 0
      vertex 48 23.5 2
    endloop
  endfacet
  facet normal 1 0 0
    outer loop
      vertex 48 12 2
      vertex 48 -2 0
      vertex 48 38.5 0
    endloop
  endfacet
  facet normal 1 0 0
    outer loop
      vertex 48 12 13
      vertex 48 -2 0
      vertex 48 12 2
    endloop
  endfacet
  facet normal 0 1 -0
    outer loop
      vertex 48 12 2
      vertex 46 12 13
      vertex 48 12 13
    endloop
  endfacet
  facet normal 0 1 0
    outer loop
      vertex 46 12 13
      vertex 48 12 2
      vertex 46 12 2
    endloop
  endfacet
  facet normal 0 1 -0
    outer loop
      vertex 48 38.5 0
      vertex -2 38.5 18
      vertex 48 38.5 18
    endloop
  endfacet
  facet normal 0 1 0
    outer loop
      vertex -2 38.5 18
      vertex 48 38.5 0
      vertex -2 38.5 0
    endloop
  endfacet
  facet normal 0 -1 0
    outer loop
      vertex 46 23.5 2
      vertex 48 23.5 13
      vertex 46 23.5 13
    endloop
  endfacet
  facet normal 0 -1 -0
    outer loop
      vertex 48 23.5 13
      vertex 46 23.5 2
      vertex 48 23.5 2
    endloop
  endfacet
  facet normal 0 0 -1
    outer loop
      vertex 46 12 13
      vertex 48 23.5 13
      vertex 48 12 13
    endloop
  endfacet
  facet normal -0 0 -1
    outer loop
      vertex 48 23.5 13
      vertex 46 12 13
      vertex 46 23.5 13
    endloop
  endfacet
  facet normal -0 0 1
    outer loop
      vertex 46 23.5 2
      vertex 48 12 2
      vertex 48 23.5 2
    endloop
  endfacet
  facet normal 0 0 1
    outer loop
      vertex 48 12 2
      vertex 46 23.5 2
      vertex 46 12 2
    endloop
  endfacet
  facet normal -1 0 0
    outer loop
      vertex -2 35.5 13
      vertex -2 38.5 0
      vertex -2 35.5 3
    endloop
  endfacet
  facet normal -1 0 0
    outer loop
      vertex -2 38.5 0
      vertex -2 19.5 3
      vertex -2 35.5 3
    endloop
  endfacet
  facet normal -1 0 0
    outer loop
      vertex -2 19 9
      vertex -2 19.5 3
      vertex -2 19 3
    endloop
  endfacet
  facet normal -1 0 0
    outer loop
      vertex -2 38.5 0
      vertex -2 19 3
      vertex -2 19.5 3
    endloop
  endfacet
  facet normal -1 0 0
    outer loop
      vertex -2 -2 0
      vertex -2 19 3
      vertex -2 38.5 0
    endloop
  endfacet
  facet normal -1 -0 0
    outer loop
      vertex -2 3 3
      vertex -2 -2 0
      vertex -2 3 9
    endloop
  endfacet
  facet normal -1 -0 0
    outer loop
      vertex -2 19 3
      vertex -2 -2 0
      vertex -2 3 3
    endloop
  endfacet
  facet normal -1 0 0
    outer loop
      vertex -2 38.5 0
      vertex -2 35.5 13
      vertex -2 38.5 18
    endloop
  endfacet
  facet normal -1 0 0
    outer loop
      vertex -2 19.5 13
      vertex -2 38.5 18
      vertex -2 35.5 13
    endloop
  endfacet
  facet normal -1 0 0
    outer loop
      vertex -2 19.5 3
      vertex -2 19 9
      vertex -2 19.5 13
    endloop
  endfacet
  facet normal -1 0 0
    outer loop
      vertex -2 3 9
      vertex -2 19.5 13
      vertex -2 19 9
    endloop
  endfacet
  facet normal -1 0 0
    outer loop
      vertex -2 -2 18
      vertex -2 19.5 13
      vertex -2 3 9
    endloop
  endfacet
  facet normal -1 0 0
    outer loop
      vertex -2 19.5 13
      vertex -2 -2 18
      vertex -2 38.5 18
    endloop
  endfacet
  facet normal -1 0 0
    outer loop
      vertex -2 -2 18
      vertex -2 3 9
      vertex -2 -2 0
    endloop
  endfacet
  facet normal 0 -1 0
    outer loop
      vertex -2 35.5 3
      vertex 0 35.5 13
      vertex -2 35.5 13
    endloop
  endfacet
  facet normal 0 -1 -0
    outer loop
      vertex 0 35.5 13
      vertex -2 35.5 3
      vertex 0 35.5 3
    endloop
  endfacet
  facet normal 0 1 -0
    outer loop
      vertex 0 19.5 3
      vertex -2 19.5 13
      vertex 0 19.5 13
    endloop
  endfacet
  facet normal 0 1 0
    outer loop
      vertex -2 19.5 13
      vertex 0 19.5 3
      vertex -2 19.5 3
    endloop
  endfacet
  facet normal 0 -1 0
    outer loop
      vertex -2 19 3
      vertex 0 19 9
      vertex -2 19 9
    endloop
  endfacet
  facet normal 0 -1 -0
    outer loop
      vertex 0 19 9
      vertex -2 19 3
      vertex 0 19 3
    endloop
  endfacet
  facet normal 0 1 -0
    outer loop
      vertex 0 3 3
      vertex -2 3 9
      vertex 0 3 9
    endloop
  endfacet
  facet normal 0 1 0
    outer loop
      vertex -2 3 9
      vertex 0 3 3
      vertex -2 3 3
    endloop
  endfacet
  facet normal 0 0 -1
    outer loop
      vertex -2 19.5 13
      vertex 0 35.5 13
      vertex 0 19.5 13
    endloop
  endfacet
  facet normal -0 0 -1
    outer loop
      vertex 0 35.5 13
      vertex -2 19.5 13
      vertex -2 35.5 13
    endloop
  endfacet
  facet normal 0 0 -1
    outer loop
      vertex -2 3 9
      vertex 0 19 9
      vertex 0 3 9
    endloop
  endfacet
  facet normal -0 0 -1
    outer loop
      vertex 0 19 9
      vertex -2 3 9
      vertex -2 19 9
    endloop
  endfacet
endsolid OpenSCAD_Model
