solid OpenSCAD_Model
  facet normal 1 -0 0
    outer loop
      vertex 54 0 4
      vertex 54 44.5 0
      vertex 54 44.5 4
    endloop
  endfacet
  facet normal 1 0 0
    outer loop
      vertex 54 44.5 0
      vertex 54 0 4
      vertex 54 0 0
    endloop
  endfacet
  facet normal -0 0 1
    outer loop
      vertex 2 42.5 2
      vertex 52 2 2
      vertex 52 42.5 2
    endloop
  endfacet
  facet normal 0 0 1
    outer loop
      vertex 52 2 2
      vertex 2 42.5 2
      vertex 2 2 2
    endloop
  endfacet
  facet normal 0 0 -1
    outer loop
      vertex 0 0 0
      vertex 54 44.5 0
      vertex 54 0 0
    endloop
  endfacet
  facet normal -0 0 -1
    outer loop
      vertex 54 44.5 0
      vertex 0 0 0
      vertex 0 44.5 0
    endloop
  endfacet
  facet normal -1 0 0
    outer loop
      vertex 0 0 0
      vertex 0 44.5 4
      vertex 0 44.5 0
    endloop
  endfacet
  facet normal -1 -0 0
    outer loop
      vertex 0 44.5 4
      vertex 0 0 0
      vertex 0 0 4
    endloop
  endfacet
  facet normal 0 1 -0
    outer loop
      vertex 54 44.5 0
      vertex 0 44.5 4
      vertex 54 44.5 4
    endloop
  endfacet
  facet normal 0 1 0
    outer loop
      vertex 0 44.5 4
      vertex 54 44.5 0
      vertex 0 44.5 0
    endloop
  endfacet
  facet normal 0 -1 0
    outer loop
      vertex 0 0 0
      vertex 54 0 4
      vertex 0 0 4
    endloop
  endfacet
  facet normal 0 -1 -0
    outer loop
      vertex 54 0 4
      vertex 0 0 0
      vertex 54 0 0
    endloop
  endfacet
  facet normal 1 -0 0
    outer loop
      vertex 2 2 4
      vertex 2 42.5 2
      vertex 2 42.5 4
    endloop
  endfacet
  facet normal 1 0 0
    outer loop
      vertex 2 42.5 2
      vertex 2 2 4
      vertex 2 2 2
    endloop
  endfacet
  facet normal 0 0 1
    outer loop
      vertex 54 44.5 4
      vertex 52 42.5 4
      vertex 54 0 4
    endloop
  endfacet
  facet normal 0 0 1
    outer loop
      vertex 54 44.5 4
      vertex 2 42.5 4
      vertex 52 42.5 4
    endloop
  endfacet
  facet normal 0 0 1
    outer loop
      vertex 2 42.5 4
      vertex 0 44.5 4
      vertex 2 2 4
    endloop
  endfacet
  facet normal -0 0 1
    outer loop
      vertex 0 44.5 4
      vertex 2 42.5 4
      vertex 54 44.5 4
    endloop
  endfacet
  facet normal -0 0 1
    outer loop
      vertex 52 2 4
      vertex 54 0 4
      vertex 52 42.5 4
    endloop
  endfacet
  facet normal -0 0 1
    outer loop
      vertex 2 2 4
      vertex 54 0 4
      vertex 52 2 4
    endloop
  endfacet
  facet normal 0 0 1
    outer loop
      vertex 2 2 4
      vertex 0 0 4
      vertex 54 0 4
    endloop
  endfacet
  facet normal 0 0 1
    outer loop
      vertex 0 0 4
      vertex 2 2 4
      vertex 0 44.5 4
    endloop
  endfacet
  facet normal -1 0 0
    outer loop
      vertex 52 2 2
      vertex 52 42.5 4
      vertex 52 42.5 2
    endloop
  endfacet
  facet normal -1 -0 0
    outer loop
      vertex 52 42.5 4
      vertex 52 2 2
      vertex 52 2 4
    endloop
  endfacet
  facet normal 0 1 -0
    outer loop
      vertex 52 2 2
      vertex 2 2 4
      vertex 52 2 4
    endloop
  endfacet
  facet normal 0 1 0
    outer loop
      vertex 2 2 4
      vertex 52 2 2
      vertex 2 2 2
    endloop
  endfacet
  facet normal 0 -1 0
    outer loop
      vertex 2 42.5 2
      vertex 52 42.5 4
      vertex 2 42.5 4
    endloop
  endfacet
  facet normal 0 -1 -0
    outer loop
      vertex 52 42.5 4
      vertex 2 42.5 2
      vertex 52 42.5 2
    endloop
  endfacet
endsolid OpenSCAD_Model
